<svg width="24" height="24" viewBox="0 0 24 24" fill="none" xmlns="http://www.w3.org/2000/svg">
<path d="M8.97003 4.47001C8.82958 4.61064 8.75069 4.80126 8.75069 5.00001C8.75069 5.19876 8.82958 5.38939 8.97003 5.53001L15.44 12L8.97003 18.47C8.89634 18.5387 8.83724 18.6215 8.79625 18.7135C8.75526 18.8055 8.73322 18.9048 8.73144 19.0055C8.72966 19.1062 8.74819 19.2062 8.78591 19.2996C8.82363 19.393 8.87977 19.4778 8.95099 19.549C9.02221 19.6203 9.10705 19.6764 9.20043 19.7141C9.29382 19.7519 9.39385 19.7704 9.49455 19.7686C9.59526 19.7668 9.69457 19.7448 9.78657 19.7038C9.87857 19.6628 9.96137 19.6037 10.03 19.53L17.56 12L10.03 4.47001C9.88941 4.32956 9.69878 4.25067 9.50003 4.25067C9.30128 4.25067 9.11066 4.32956 8.97003 4.47001Z" fill="#B3B3B3"/>
</svg>
