<svg width="24" height="24" viewBox="0 0 24 24" fill="none" xmlns="http://www.w3.org/2000/svg">
<path d="M11.7929 5.5C10.732 5.5 9.71462 5.92143 8.96448 6.67157C8.21433 7.42172 7.7929 8.43913 7.7929 9.5V12.77C7.7927 12.9009 7.75822 13.0295 7.6929 13.143L6.0479 16H17.5379L15.8929 13.142C15.8274 13.0282 15.7929 12.8993 15.7929 12.768V9.5C15.7929 8.43913 15.3715 7.42172 14.6213 6.67157C13.8712 5.92143 12.8538 5.5 11.7929 5.5ZM6.2929 9.5C6.2929 8.04131 6.87237 6.64236 7.90382 5.61091C8.93527 4.57946 10.3342 4 11.7929 4C13.2516 4 14.6505 4.57946 15.682 5.61091C16.7134 6.64236 17.2929 8.04131 17.2929 9.5V12.567L19.4859 16.376C19.5515 16.49 19.586 16.6193 19.5858 16.7508C19.5857 16.8824 19.5509 17.0116 19.4851 17.1255C19.4192 17.2393 19.3246 17.3339 19.2106 17.3996C19.0967 17.4654 18.9675 17.5 18.8359 17.5H14.2929C14.2929 18.163 14.0295 18.7989 13.5607 19.2678C13.0918 19.7366 12.4559 20 11.7929 20C11.1299 20 10.494 19.7366 10.0251 19.2678C9.5563 18.7989 9.2929 18.163 9.2929 17.5H4.7499C4.61836 17.5 4.48913 17.4654 4.37519 17.3996C4.26125 17.3339 4.1666 17.2393 4.10075 17.1255C4.03489 17.0116 4.00015 16.8824 4 16.7508C3.99985 16.6193 4.03431 16.49 4.0999 16.376L6.2929 12.569V9.5ZM10.7929 17.5C10.7929 17.7652 10.8983 18.0196 11.0858 18.2071C11.2733 18.3946 11.5277 18.5 11.7929 18.5C12.0581 18.5 12.3125 18.3946 12.5 18.2071C12.6875 18.0196 12.7929 17.7652 12.7929 17.5H10.7929Z" fill="#B3B3B3"/>
</svg>
