<svg width="24" height="24" viewBox="0 0 24 24" fill="none" xmlns="http://www.w3.org/2000/svg">
<path d="M15 15.5C15 16.605 13.657 17.5 12 17.5C10.343 17.5 9 16.605 9 15.5C9 14.395 10.343 13.5 12 13.5C13.657 13.5 15 14.395 15 15.5Z" fill="#B3B3B3"/>
<path d="M1.51295 9.37C1.60686 9.25424 1.72545 9.16094 1.86006 9.09692C1.99467 9.03291 2.14189 8.99979 2.29095 9H21.709C21.858 8.99987 22.0052 9.03306 22.1398 9.09714C22.2743 9.16123 22.3929 9.25458 22.4867 9.37038C22.5806 9.48617 22.6473 9.62148 22.6822 9.76641C22.717 9.91133 22.719 10.0622 22.688 10.208L20.349 21.208C20.3013 21.4321 20.1782 21.633 20.0002 21.7771C19.8221 21.9213 19.6 22 19.371 22H4.62995C4.40088 22 4.17876 21.9213 4.00074 21.7771C3.82273 21.633 3.6996 21.4321 3.65195 21.208L1.31295 10.208C1.28202 10.0623 1.28401 9.91157 1.31878 9.76677C1.35356 9.62196 1.42024 9.48674 1.51395 9.371L1.51295 9.37ZM3.52495 11L5.43795 20H18.561L20.474 11H3.52495ZM3.99995 2C3.99995 1.73478 4.10531 1.48043 4.29284 1.29289C4.48038 1.10536 4.73473 1 4.99995 1H19C19.2652 1 19.5195 1.10536 19.7071 1.29289C19.8946 1.48043 20 1.73478 20 2V6H18V3H5.99995V6H3.99995V2Z" fill="#B3B3B3"/>
</svg>
