<svg width="24" height="24" viewBox="0 0 24 24" fill="none" xmlns="http://www.w3.org/2000/svg">
<path d="M3.99997 2C3.99997 1.73478 4.10533 1.48043 4.29287 1.29289C4.4804 1.10536 4.73476 1 4.99997 1H19C19.2652 1 19.5195 1.10536 19.7071 1.29289C19.8946 1.48043 20 1.73478 20 2V6H3.99997V2ZM1.51297 9.37C1.60688 9.25424 1.72548 9.16094 1.86009 9.09692C1.9947 9.03291 2.14192 8.99979 2.29097 9H21.71C21.8589 9.00002 22.006 9.03332 22.1405 9.09747C22.2749 9.16161 22.3933 9.25499 22.4871 9.37076C22.5808 9.48654 22.6475 9.6218 22.6822 9.76665C22.717 9.9115 22.719 10.0623 22.688 10.208L20.518 20.416C20.4227 20.8641 20.1764 21.2659 19.8204 21.5543C19.4644 21.8426 19.0201 21.9999 18.562 22H5.43797C4.97983 21.9999 4.5356 21.8426 4.17956 21.5543C3.82352 21.2659 3.57727 20.8641 3.48197 20.416L1.31197 10.208C1.28104 10.0623 1.28303 9.91157 1.31781 9.76677C1.35258 9.62196 1.41926 9.48674 1.51297 9.371V9.37ZM12 17.834C13.933 17.834 15.5 16.79 15.5 15.501C15.5 14.212 13.933 13.168 12 13.168C10.067 13.168 8.49997 14.21 8.49997 15.5C8.49997 16.79 10.067 17.834 12 17.834Z" fill="white"/>
</svg>
