<svg width="16" height="16" viewBox="0 0 16 16" fill="none" xmlns="http://www.w3.org/2000/svg">
<path d="M15.53 2.47001C15.6704 2.61064 15.7493 2.80126 15.7493 3.00001C15.7493 3.19876 15.6704 3.38939 15.53 3.53001L4.90697 14.153L0.469969 9.71601C0.337489 9.57384 0.265365 9.38579 0.268794 9.19149C0.272222 8.99719 0.350934 8.8118 0.488347 8.67439C0.62576 8.53698 0.811145 8.45827 1.00545 8.45484C1.19975 8.45141 1.38779 8.52353 1.52997 8.65601L4.90697 12.032L14.47 2.47001C14.6106 2.32956 14.8012 2.25067 15 2.25067C15.1987 2.25067 15.3893 2.32956 15.53 2.47001Z" fill="#1ED760"/>
</svg>
