<svg width="24" height="24" viewBox="0 0 24 24" fill="none" xmlns="http://www.w3.org/2000/svg">
<path d="M5 6.75C5 6.55109 5.07902 6.36032 5.21967 6.21967C5.36032 6.07902 5.55109 6 5.75 6H11V7.5H6.5V18.5H16.719V13H18.219V19.25C18.219 19.4489 18.14 19.6397 17.9993 19.7803C17.8587 19.921 17.6679 20 17.469 20H5.75C5.55109 20 5.36032 19.921 5.21967 19.7803C5.07902 19.6397 5 19.4489 5 19.25V6.75Z" fill="#B3B3B3"/>
<path d="M19 5V9.993C19 10.1919 18.921 10.3827 18.7803 10.5233C18.6396 10.664 18.4489 10.743 18.25 10.743C18.0511 10.743 17.8603 10.664 17.7196 10.5233C17.579 10.3827 17.5 10.1919 17.5 9.993V7.56L12.78 12.28C12.6378 12.4125 12.4497 12.4846 12.2554 12.4812C12.0611 12.4777 11.8758 12.399 11.7383 12.2616C11.6009 12.1242 11.5222 11.9388 11.5188 11.7445C11.5154 11.5502 11.5875 11.3622 11.72 11.22L16.44 6.5H14.007C13.8081 6.5 13.6173 6.42098 13.4766 6.28033C13.336 6.13968 13.257 5.94891 13.257 5.75C13.257 5.55109 13.336 5.36032 13.4766 5.21967C13.6173 5.07902 13.8081 5 14.007 5H19Z" fill="#B3B3B3"/>
</svg>
