<svg width="24" height="24" viewBox="0 0 24 24" fill="none" xmlns="http://www.w3.org/2000/svg">
<path d="M6.81625 13.326C6.79 12.7436 6.84875 12.1612 6.99 11.5963H4.09126C4.27001 11.2168 4.56001 10.9 4.92251 10.6895L6.07501 10.0232C6.33262 9.87438 6.5546 9.67085 6.72536 9.42691C6.89611 9.18297 7.01151 8.90454 7.06345 8.61115C7.11539 8.31777 7.1026 8.01656 7.02599 7.72865C6.94939 7.44075 6.81081 7.17314 6.62 6.9446C6.27624 6.57285 6.06751 6.09588 6.02751 5.59067C6.01584 5.35102 6.03959 5.11597 6.09876 4.88552C6.15821 4.69121 6.25909 4.51218 6.39442 4.3608C6.52974 4.20942 6.69628 4.0893 6.8825 4.00878C7.06897 3.92884 7.26968 3.88763 7.4725 3.88763C7.67532 3.88763 7.87603 3.92884 8.0625 4.00878C8.25 4.09227 8.41333 4.20959 8.55249 4.36072C8.68749 4.51102 8.78749 4.69013 8.84874 4.88301C8.91041 5.11347 8.93416 5.34768 8.91999 5.58566C8.88046 6.09234 8.67123 6.57078 8.32625 6.94335C8.04941 7.27105 7.88492 7.67917 7.85701 8.1076C7.82911 8.53602 7.93926 8.9621 8.17125 9.32307C8.62124 8.83711 9.16124 8.44383 9.76124 8.16202V8.14323C10.3612 7.45937 10.7212 6.59892 10.7875 5.69086C10.8164 5.21195 10.7592 4.73172 10.6187 4.27305C10.3979 3.61102 9.97496 3.03532 9.40967 2.62741C8.84437 2.21949 8.16538 2 7.46875 2C6.77212 2 6.09313 2.21949 5.52783 2.62741C4.96254 3.03532 4.53957 3.61102 4.31876 4.27305C4.18001 4.73271 4.12251 5.21241 4.15001 5.69212C4.21626 6.59892 4.57626 7.45812 5.17626 8.14073C5.19139 8.15897 5.20237 8.1803 5.20841 8.20323C5.21446 8.22616 5.21543 8.25014 5.21126 8.27349C5.20731 8.29712 5.19821 8.31959 5.18459 8.33929C5.17098 8.359 5.1532 8.37545 5.13251 8.38747L3.98001 9.05379C3.37535 9.40827 2.8742 9.91566 2.52672 10.5252C2.17924 11.1347 1.99761 11.825 2.00002 12.5269V13.4663H6.8325C6.83375 13.425 6.82 13.3774 6.81625 13.326ZM20.0262 9.06757L18.8737 8.40124C18.8528 8.38936 18.8347 8.37297 18.8209 8.35326C18.8071 8.33355 18.7978 8.31101 18.7937 8.28727C18.7898 8.2651 18.7909 8.24233 18.797 8.22065C18.803 8.19898 18.8139 8.17894 18.8287 8.16202C19.4287 7.47816 19.7887 6.6177 19.8549 5.70965C19.8816 5.22957 19.8245 4.74849 19.6862 4.28808C19.5405 3.84896 19.3045 3.44537 18.9933 3.10341C18.6822 2.76144 18.3029 2.48873 17.88 2.30289C17.242 2.02201 16.5322 1.94828 15.8503 2.09203C15.1683 2.23579 14.5484 2.58982 14.0775 3.10448C13.7664 3.44748 13.5305 3.85195 13.385 4.29184C13.2475 4.7515 13.19 5.2312 13.2175 5.7109C13.2837 6.6177 13.6437 7.47691 14.2437 8.15951C14.25 8.16703 14.2437 8.17329 14.2437 8.18206C14.8437 8.46387 15.3825 8.8584 15.8337 9.34311C16.0676 8.98114 16.1787 8.55322 16.1506 8.12293C16.1224 7.69263 15.9565 7.28291 15.6775 6.95462C15.3337 6.58287 15.125 6.1059 15.085 5.60069C15.0725 5.36104 15.0962 5.12599 15.1562 4.89554C15.2157 4.70123 15.3166 4.5222 15.4519 4.37082C15.5872 4.21944 15.7537 4.09932 15.94 4.0188C16.1264 3.93886 16.3271 3.89765 16.53 3.89765C16.7328 3.89765 16.9335 3.93886 17.12 4.0188C17.3075 4.10229 17.4708 4.21961 17.61 4.37074C17.745 4.52271 17.8433 4.69514 17.905 4.88802C17.9675 5.11848 17.9925 5.3577 17.9775 5.59568C17.9379 6.10236 17.7287 6.5808 17.3837 6.95337C17.1941 7.18228 17.0566 7.44989 16.9808 7.73752C16.905 8.02515 16.8927 8.32589 16.9448 8.61876C16.997 8.91163 17.1122 9.18958 17.2826 9.43323C17.4529 9.67688 17.6743 9.88036 17.9312 10.0295L19.0837 10.6958C19.4462 10.9075 19.7337 11.2231 19.9137 11.6026H17.015C17.1562 12.1687 17.215 12.7524 17.1887 13.3348C17.1887 13.3849 17.1725 13.4325 17.1675 13.4813H21.9999V12.542C22.004 11.8394 21.8236 11.1482 21.477 10.5375C21.1303 9.92685 20.6296 9.4182 20.0249 9.06256L20.0262 9.06757ZM15.495 16.5825L14.3425 15.9162C14.3119 15.8985 14.288 15.8713 14.2743 15.8388C14.2605 15.8062 14.2577 15.7701 14.2662 15.7358C14.2711 15.7137 14.2819 15.6934 14.2975 15.6769C14.8974 14.9936 15.2578 14.1323 15.3237 13.2246C15.3526 12.7457 15.2955 12.2654 15.155 11.8068C14.9344 11.1443 14.5115 10.5681 13.9461 10.1598C13.3806 9.75153 12.7013 9.53183 12.0044 9.53183C11.3074 9.53183 10.6281 9.75153 10.0626 10.1598C9.49719 10.5681 9.07426 11.1443 8.85374 11.8068C8.71624 12.2664 8.65874 12.7461 8.68624 13.2258C8.75249 14.1326 9.11249 14.9918 9.71249 15.6744C9.72762 15.6927 9.73859 15.714 9.74464 15.7369C9.75069 15.7599 9.75166 15.7838 9.74749 15.8072C9.74354 15.8308 9.73444 15.8533 9.72082 15.873C9.70721 15.8927 9.68943 15.9091 9.66874 15.9212L8.51624 16.5875C7.91158 16.942 7.41043 17.4494 7.06295 18.0589C6.71547 18.6684 6.53384 19.3587 6.53625 20.0606V21H17.4737V20.0606C17.478 19.3571 17.2974 18.6648 16.9501 18.0534C16.6027 17.442 16.1009 16.933 15.495 16.5775V16.5825ZM8.61999 19.1163C8.79874 18.7368 9.08874 18.4199 9.45124 18.2095L10.6037 17.5431C10.8613 17.3943 11.0833 17.1908 11.2541 16.9468C11.4248 16.7029 11.5402 16.4245 11.5922 16.1311C11.6441 15.8377 11.6313 15.5365 11.5547 15.2486C11.4781 14.9607 11.3395 14.6931 11.1487 14.4645C10.805 14.0928 10.5962 13.6158 10.5562 13.1106C10.5437 12.8709 10.5675 12.6359 10.6275 12.4054C10.6869 12.2111 10.7878 12.0321 10.9231 11.8807C11.0585 11.7293 11.225 11.6092 11.4112 11.5287C11.5977 11.4488 11.7984 11.4076 12.0012 11.4076C12.204 11.4076 12.4048 11.4488 12.5912 11.5287C12.7787 11.6122 12.9421 11.7295 13.0812 11.8807C13.2162 12.0309 13.3162 12.2101 13.3775 12.4029C13.4383 12.6334 13.4621 12.8676 13.4487 13.1056C13.4092 13.6123 13.2 14.0907 12.855 14.4633C12.6651 14.6921 12.5275 14.9597 12.4515 15.2474C12.3756 15.535 12.3633 15.8359 12.4154 16.1288C12.4676 16.4217 12.5829 16.6997 12.7534 16.9434C12.9239 17.187 13.1454 17.3904 13.4025 17.5394L14.555 18.2057C14.9175 18.4174 15.205 18.733 15.385 19.1125L8.61999 19.1163Z" fill="#B3B3B3"/>
</svg>
