<svg width="24" height="24" viewBox="0 0 24 24" fill="none" xmlns="http://www.w3.org/2000/svg">
<path d="M4 8.75C4 7.75544 4.39509 6.80161 5.09835 6.09835C5.80161 5.39509 6.75544 5 7.75 5H16.25C17.2446 5 18.1984 5.39509 18.9017 6.09835C19.6049 6.80161 20 7.75544 20 8.75V13.75C20 14.7446 19.6049 15.6984 18.9017 16.4017C18.1984 17.1049 17.2446 17.5 16.25 17.5H13.81L14.828 18.518C14.9017 18.5867 14.9608 18.6695 15.0018 18.7615C15.0428 18.8535 15.0648 18.9528 15.0666 19.0535C15.0684 19.1542 15.0498 19.2542 15.0121 19.3476C14.9744 19.441 14.9183 19.5258 14.847 19.597C14.7758 19.6683 14.691 19.7244 14.5976 19.7621C14.5042 19.7998 14.4042 19.8184 14.3035 19.8166C14.2028 19.8148 14.1035 19.7928 14.0115 19.7518C13.9195 19.7108 13.8367 19.6517 13.768 19.578L10.939 16.75L13.768 13.922C13.8367 13.8483 13.9195 13.7892 14.0115 13.7482C14.1035 13.7072 14.2028 13.6852 14.3035 13.6834C14.4042 13.6816 14.5042 13.7002 14.5976 13.7379C14.691 13.7756 14.7758 13.8317 14.847 13.903C14.9183 13.9742 14.9744 14.059 15.0121 14.1524C15.0498 14.2458 15.0684 14.3458 15.0666 14.4465C15.0648 14.5472 15.0428 14.6465 15.0018 14.7385C14.9608 14.8305 14.9017 14.9133 14.828 14.982L13.811 16H16.25C16.8467 16 17.419 15.7629 17.841 15.341C18.2629 14.919 18.5 14.3467 18.5 13.75V8.75C18.5 8.15326 18.2629 7.58097 17.841 7.15901C17.419 6.73705 16.8467 6.5 16.25 6.5H7.75C7.15326 6.5 6.58097 6.73705 6.15901 7.15901C5.73705 7.58097 5.5 8.15326 5.5 8.75V13.75C5.5 14.3467 5.73705 14.919 6.15901 15.341C6.58097 15.7629 7.15326 16 7.75 16H9V17.5H7.75C6.75544 17.5 5.80161 17.1049 5.09835 16.4017C4.39509 15.6984 4 14.7446 4 13.75V8.75Z" fill="#B3B3B3"/>
</svg>
