<svg width="24" height="24" viewBox="0 0 24 24" fill="none" xmlns="http://www.w3.org/2000/svg">
<path d="M14.97 9.46997C15.0386 9.39628 15.1214 9.33718 15.2134 9.29619C15.3054 9.2552 15.4047 9.23316 15.5054 9.23138C15.6061 9.2296 15.7062 9.24813 15.7995 9.28585C15.8929 9.32357 15.9778 9.37971 16.049 9.45093C16.1202 9.52215 16.1764 9.60698 16.2141 9.70037C16.2518 9.79376 16.2703 9.89379 16.2685 9.99449C16.2668 10.0952 16.2447 10.1945 16.2037 10.2865C16.1627 10.3785 16.1036 10.4613 16.03 10.53L14.56 12L16.03 13.47C16.1036 13.5386 16.1627 13.6214 16.2037 13.7134C16.2447 13.8054 16.2668 13.9047 16.2685 14.0054C16.2703 14.1062 16.2518 14.2062 16.2141 14.2996C16.1764 14.393 16.1202 14.4778 16.049 14.549C15.9778 14.6202 15.8929 14.6764 15.7995 14.7141C15.7062 14.7518 15.6061 14.7703 15.5054 14.7686C15.4047 14.7668 15.3054 14.7447 15.2134 14.7038C15.1214 14.6628 15.0386 14.6037 14.97 14.53L12.97 12.53C12.8295 12.3893 12.7506 12.1987 12.7506 12C12.7506 11.8012 12.8295 11.6106 12.97 11.47L14.97 9.46997Z" fill="#B3B3B3"/>
<path d="M5 4C4.73478 4 4.48043 4.10536 4.29289 4.29289C4.10536 4.48043 4 4.73478 4 5V19C4 19.2652 4.10536 19.5196 4.29289 19.7071C4.48043 19.8946 4.73478 20 5 20H19C19.2652 20 19.5196 19.8946 19.7071 19.7071C19.8946 19.5196 20 19.2652 20 19V5C20 4.73478 19.8946 4.48043 19.7071 4.29289C19.5196 4.10536 19.2652 4 19 4H5ZM5.5 5.5H9V18.5H5.5V5.5ZM18.5 18.5H10.5V5.5H18.5V18.5Z" fill="#B3B3B3"/>
</svg>
