<svg width="24" height="24" viewBox="0 0 24 24" fill="none" xmlns="http://www.w3.org/2000/svg">
<path d="M16.7 5C16.5143 5 16.3363 5.07375 16.205 5.20503C16.0738 5.3363 16 5.51435 16 5.7V10.85L6.05 5.107C5.94368 5.04561 5.82308 5.01327 5.7003 5.01322C5.57753 5.01316 5.4569 5.0454 5.35053 5.1067C5.24415 5.16799 5.15576 5.25618 5.09424 5.36243C5.03271 5.46867 5.00021 5.58923 5 5.712V18.287C4.99986 18.4099 5.03211 18.5308 5.09349 18.6373C5.15487 18.7438 5.24322 18.8323 5.34966 18.8938C5.4561 18.9553 5.57686 18.9877 5.6998 18.9878C5.82275 18.9878 5.94353 18.9555 6.05 18.894L16 13.149V18.3C16 18.4857 16.0738 18.6637 16.205 18.795C16.3363 18.9262 16.5143 19 16.7 19H18.3C18.4857 19 18.6637 18.9262 18.795 18.795C18.9262 18.6637 19 18.4857 19 18.3V5.7C19 5.51435 18.9262 5.3363 18.795 5.20503C18.6637 5.07375 18.4857 5 18.3 5H16.7Z" fill="#B3B3B3"/>
</svg>
