<svg width="24" height="24" viewBox="0 0 24 24" fill="none" xmlns="http://www.w3.org/2000/svg">
<path d="M22 12.5C22 12.7606 21.891 13.0106 21.697 13.1949C21.503 13.3792 21.2399 13.4828 20.9655 13.4828H13.0345V21.0172C13.0345 21.2779 12.9255 21.5279 12.7315 21.7122C12.5375 21.8965 12.2744 22 12 22C11.7256 22 11.4625 21.8965 11.2685 21.7122C11.0745 21.5279 10.9655 21.2779 10.9655 21.0172V13.4828H3.03448C2.76012 13.4828 2.497 13.3792 2.30299 13.1949C2.10899 13.0106 2 12.7606 2 12.5C2 12.2394 2.10899 11.9894 2.30299 11.8051C2.497 11.6208 2.76012 11.5172 3.03448 11.5172H10.9655V3.98276C10.9655 3.72211 11.0745 3.47215 11.2685 3.28784C11.4625 3.10354 11.7256 3 12 3C12.2744 3 12.5375 3.10354 12.7315 3.28784C12.9255 3.47215 13.0345 3.72211 13.0345 3.98276V11.5172H20.9655C21.2399 11.5172 21.503 11.6208 21.697 11.8051C21.891 11.9894 22 12.2394 22 12.5Z" fill="#B3B3B3"/>
</svg>
