<svg width="24" height="24" viewBox="0 0 24 24" fill="none" xmlns="http://www.w3.org/2000/svg">
<path d="M6.7 5C6.51435 5 6.3363 5.07375 6.20503 5.20503C6.07375 5.3363 6 5.51435 6 5.7V18.3C6 18.4857 6.07375 18.6637 6.20503 18.795C6.3363 18.9262 6.51435 19 6.7 19H9.3C9.48565 19 9.6637 18.9262 9.79497 18.795C9.92625 18.6637 10 18.4857 10 18.3V5.7C10 5.51435 9.92625 5.3363 9.79497 5.20503C9.6637 5.07375 9.48565 5 9.3 5H6.7ZM14.7 5C14.5143 5 14.3363 5.07375 14.205 5.20503C14.0738 5.3363 14 5.51435 14 5.7V18.3C14 18.4857 14.0738 18.6637 14.205 18.795C14.3363 18.9262 14.5143 19 14.7 19H17.3C17.4857 19 17.6637 18.9262 17.795 18.795C17.9262 18.6637 18 18.4857 18 18.3V5.7C18 5.51435 17.9262 5.3363 17.795 5.20503C17.6637 5.07375 17.4857 5 17.3 5H14.7Z" fill="black"/>
</svg>
