<svg width="24" height="24" viewBox="0 0 24 24" fill="none" xmlns="http://www.w3.org/2000/svg">
<g clip-path="url(#clip0_63_78)">
<path d="M17.151 4.922C17.0823 4.84831 16.9995 4.78921 16.9075 4.74822C16.8155 4.70722 16.7162 4.68518 16.6155 4.68341C16.5148 4.68163 16.4148 4.70015 16.3214 4.73787C16.228 4.7756 16.1432 4.83174 16.072 4.90296C16.0007 4.97418 15.9446 5.05901 15.9069 5.1524C15.8692 5.24579 15.8506 5.34582 15.8524 5.44652C15.8542 5.54722 15.8762 5.64654 15.9172 5.73854C15.9582 5.83053 16.0173 5.91333 16.091 5.982L17.109 7H15.16C14.6123 7 14.0713 7.11998 13.5749 7.35148C13.0786 7.58298 12.639 7.92039 12.287 8.34L6.114 15.696C5.90279 15.9478 5.63899 16.1502 5.34115 16.2892C5.0433 16.4281 4.71864 16.5 4.39 16.5H4V18H4.391C4.93868 18 5.47971 17.88 5.97606 17.6485C6.47241 17.417 6.91202 17.0796 7.264 16.66L13.437 9.304C13.6482 9.05221 13.912 8.84975 14.2099 8.71084C14.5077 8.57194 14.8324 8.49997 15.161 8.5H17.108L16.091 9.518C15.9585 9.66017 15.8864 9.84822 15.8898 10.0425C15.8933 10.2368 15.972 10.4222 16.1094 10.5596C16.2468 10.697 16.4322 10.7757 16.6265 10.7792C16.8208 10.7826 17.0088 10.7105 17.151 10.578L19.98 7.75L17.151 4.922ZM4.391 7.5H4V6H4.391C5.5 6 6.551 6.49 7.264 7.34L8.89 9.277L7.911 10.444L6.115 8.304C5.90368 8.05208 5.63972 7.84954 5.34169 7.71063C5.04366 7.57172 4.71881 7.49983 4.39 7.5H4.391Z" fill="#B3B3B3"/>
<path d="M11.5 14.723L12.48 13.556L13.437 14.696C13.6482 14.9478 13.912 15.1502 14.2099 15.2892C14.5077 15.4281 14.8324 15.5 15.161 15.5H17.108L16.091 14.482C16.0173 14.4133 15.9582 14.3305 15.9172 14.2385C15.8762 14.1465 15.8542 14.0472 15.8524 13.9465C15.8506 13.8458 15.8692 13.7458 15.9069 13.6524C15.9446 13.559 16.0007 13.4742 16.072 13.403C16.1432 13.3317 16.228 13.2756 16.3214 13.2379C16.4148 13.2002 16.5148 13.1816 16.6155 13.1834C16.7162 13.1852 16.8155 13.2072 16.9075 13.2482C16.9995 13.2892 17.0823 13.3483 17.151 13.422L19.98 16.25L17.151 19.078C17.0823 19.1517 16.9995 19.2108 16.9075 19.2518C16.8155 19.2928 16.7162 19.3148 16.6155 19.3166C16.5148 19.3184 16.4148 19.2998 16.3214 19.2621C16.228 19.2244 16.1432 19.1683 16.072 19.097C16.0007 19.0258 15.9446 18.941 15.9069 18.8476C15.8692 18.7542 15.8506 18.6542 15.8524 18.5535C15.8542 18.4528 15.8762 18.3535 15.9172 18.2615C15.9582 18.1695 16.0173 18.0867 16.091 18.018L17.109 17H15.16C14.6123 17 14.0713 16.88 13.5749 16.6485C13.0786 16.417 12.639 16.0796 12.287 15.66L11.5 14.723Z" fill="#B3B3B3"/>
</g>
<defs>
<clipPath id="clip0_63_78">
<rect width="16" height="16" fill="white" transform="translate(4 4)"/>
</clipPath>
</defs>
</svg>
