<svg width="16" height="16" viewBox="0 0 16 16" fill="none" xmlns="http://www.w3.org/2000/svg">
<path d="M9.74095 0.849969C9.85504 0.915836 9.94976 1.01059 10.0156 1.1247C10.0814 1.2388 10.116 1.36824 10.116 1.49997V14.5C10.116 14.6317 10.0814 14.7611 10.0157 14.8751C9.94986 14.9892 9.85519 15.084 9.74116 15.1498C9.62713 15.2157 9.49777 15.2504 9.36607 15.2505C9.23438 15.2505 9.105 15.2158 8.99095 15.15L2.06595 11.15C1.23174 10.6669 0.623217 9.87266 0.373879 8.94149C0.124541 8.01031 0.254755 7.01826 0.735954 6.18297C1.05483 5.63004 1.5135 5.17068 2.06595 4.85097L8.99095 0.850969C9.10497 0.785143 9.2343 0.750488 9.36595 0.750488C9.49761 0.750488 9.62694 0.784143 9.74095 0.849969ZM2.81695 6.14997C2.49317 6.33823 2.22447 6.60817 2.0377 6.93282C1.85094 7.25746 1.75264 7.62544 1.75264 7.99997C1.75264 8.3745 1.85094 8.74248 2.0377 9.06712C2.22447 9.39177 2.49317 9.66171 2.81695 9.84997L8.61695 13.2V2.79997L2.81695 6.14997ZM11.5 10.44V5.55997C11.9466 5.79214 12.3209 6.14243 12.5821 6.57268C12.8434 7.00292 12.9815 7.49662 12.9815 7.99997C12.9815 8.50332 12.8434 8.99702 12.5821 9.42726C12.3209 9.85751 11.9466 10.2078 11.5 10.44Z" fill="#B3B3B3"/>
</svg>
