<svg width="16" height="16" viewBox="0 0 16 16" fill="none" xmlns="http://www.w3.org/2000/svg">
<path d="M9.74095 0.849969C9.85504 0.915836 9.94976 1.01059 10.0156 1.1247C10.0814 1.2388 10.116 1.36824 10.116 1.49997V14.5C10.116 14.6317 10.0814 14.7611 10.0157 14.8751C9.94986 14.9892 9.85519 15.084 9.74116 15.1498C9.62713 15.2157 9.49777 15.2504 9.36607 15.2505C9.23438 15.2505 9.105 15.2158 8.99095 15.15L2.06595 11.15C1.23174 10.6669 0.623217 9.87266 0.373879 8.94149C0.124541 8.01031 0.254755 7.01826 0.735954 6.18297C1.05483 5.63004 1.5135 5.17068 2.06595 4.85097L8.99095 0.850969C9.10497 0.785143 9.2343 0.750488 9.36595 0.750488C9.49761 0.750488 9.62694 0.784143 9.74095 0.849969ZM2.81695 6.14997C2.49317 6.33823 2.22447 6.60817 2.0377 6.93282C1.85094 7.25746 1.75264 7.62544 1.75264 7.99997C1.75264 8.3745 1.85094 8.74248 2.0377 9.06712C2.22447 9.39177 2.49317 9.66171 2.81695 9.84997L8.61695 13.2V2.79997L2.81695 6.14997ZM11.5 12.237C12.3725 11.9236 13.1271 11.3484 13.6605 10.59C14.1939 9.83168 14.4802 8.92713 14.4802 7.99997C14.4802 7.07281 14.1939 6.16826 13.6605 5.4099C13.1271 4.65154 12.3725 4.07637 11.5 3.76297V5.41297C11.9511 5.67766 12.3252 6.0557 12.5851 6.50958C12.845 6.96347 12.9818 7.47742 12.9818 8.00047C12.9818 8.52351 12.845 9.03747 12.5851 9.49136C12.3252 9.94524 11.9511 10.3233 11.5 10.588V12.237Z" fill="#B3B3B3"/>
</svg>
