<svg width="16" height="16" viewBox="0 0 16 16" fill="none" xmlns="http://www.w3.org/2000/svg">
<path d="M13.86 5.46996C13.7904 5.40027 13.7077 5.34498 13.6166 5.30726C13.5256 5.26954 13.428 5.25012 13.3295 5.25012C13.231 5.25012 13.1334 5.26954 13.0424 5.30726C12.9514 5.34498 12.8687 5.40027 12.799 5.46996L11.329 6.93996L9.85901 5.46996C9.71636 5.34019 9.52921 5.27036 9.33643 5.27496C9.14364 5.27956 8.96003 5.35824 8.82374 5.49467C8.68744 5.63109 8.60893 5.81477 8.60452 6.00756C8.6001 6.20035 8.67011 6.38744 8.80001 6.52996L10.269 7.99996L8.79901 9.46996C8.72532 9.53862 8.66622 9.62142 8.62523 9.71342C8.58424 9.80542 8.5622 9.90474 8.56042 10.0054C8.55864 10.1061 8.57717 10.2062 8.61489 10.2996C8.65261 10.3929 8.70875 10.4778 8.77997 10.549C8.85119 10.6202 8.93603 10.6764 9.02941 10.7141C9.1228 10.7518 9.22283 10.7703 9.32353 10.7686C9.42424 10.7668 9.52355 10.7447 9.61555 10.7037C9.70755 10.6628 9.79035 10.6036 9.85901 10.53L11.329 9.05996L12.799 10.53C12.9412 10.6624 13.1292 10.7346 13.3235 10.7311C13.5178 10.7277 13.7032 10.649 13.8406 10.5116C13.978 10.3742 14.0568 10.1888 14.0602 9.99448C14.0636 9.80018 13.9915 9.61214 13.859 9.46996L12.39 7.99996L13.86 6.52996C14.0005 6.38934 14.0794 6.19871 14.0794 5.99996C14.0794 5.80121 14.0005 5.61059 13.86 5.46996Z" fill="#B3B3B3"/>
<path d="M10.116 1.49999C10.116 1.3683 10.0814 1.23891 10.0157 1.12482C9.94986 1.01074 9.85519 0.915996 9.74116 0.850113C9.62713 0.78423 9.49777 0.749533 9.36607 0.749512C9.23438 0.749491 9.105 0.784146 8.99095 0.849993L2.06595 4.84999C1.23174 5.33306 0.623217 6.1273 0.373879 7.05848C0.124541 7.98965 0.254755 8.98171 0.735954 9.81699C1.05483 10.3699 1.5135 10.8293 2.06595 11.149L8.99095 15.149C9.10493 15.2148 9.23422 15.2495 9.36582 15.2495C9.49743 15.2495 9.62673 15.2149 9.74073 15.1491C9.85473 15.0834 9.94941 14.9888 10.0153 14.8748C10.0811 14.7609 10.1159 14.6316 10.116 14.5V12.594C9.57888 12.4531 9.07103 12.2181 8.61595 11.9V13.2L2.81695 9.85199C2.32671 9.56784 1.96918 9.10085 1.82277 8.55346C1.67636 8.00606 1.75302 7.42294 2.03595 6.93199C2.22295 6.60799 2.49195 6.33799 2.81595 6.14999L8.61595 2.79999V4.09999C9.06595 3.78699 9.57195 3.54999 10.116 3.40599V1.49999Z" fill="#B3B3B3"/>
</svg>
