<svg width="24" height="24" viewBox="0 0 24 24" fill="none" xmlns="http://www.w3.org/2000/svg">
<path d="M3.29303 3.29302C3.48056 3.10555 3.73487 3.00023 4.00003 3.00023C4.26519 3.00023 4.5195 3.10555 4.70703 3.29302L12 10.586L19.293 3.29302C19.3853 3.19751 19.4956 3.12133 19.6176 3.06892C19.7396 3.01651 19.8709 2.98892 20.0036 2.98777C20.1364 2.98662 20.2681 3.01192 20.391 3.0622C20.5139 3.11248 20.6255 3.18673 20.7194 3.28063C20.8133 3.37452 20.8876 3.48617 20.9379 3.60907C20.9881 3.73196 21.0134 3.86364 21.0123 3.99642C21.0111 4.1292 20.9835 4.26042 20.9311 4.38242C20.8787 4.50443 20.8025 4.61477 20.707 4.70702L13.414 12L20.707 19.293C20.8892 19.4816 20.99 19.7342 20.9877 19.9964C20.9854 20.2586 20.8803 20.5094 20.6948 20.6948C20.5094 20.8802 20.2586 20.9854 19.9964 20.9877C19.7342 20.99 19.4816 20.8892 19.293 20.707L12 13.414L4.70703 20.707C4.51843 20.8892 4.26583 20.99 4.00363 20.9877C3.74143 20.9854 3.49062 20.8802 3.30521 20.6948C3.1198 20.5094 3.01463 20.2586 3.01236 19.9964C3.01008 19.7342 3.11087 19.4816 3.29303 19.293L10.586 12L3.29303 4.70702C3.10556 4.51949 3.00024 4.26518 3.00024 4.00002C3.00024 3.73486 3.10556 3.48055 3.29303 3.29302Z" fill="#B3B3B3"/>
</svg>
